<?xml version="1.0" encoding="UTF-8" standalone="no"?>
<!-- Created with Inkscape (http://www.inkscape.org/) -->

<svg
   width="38.424mm"
   height="33.252998mm"
   viewBox="0 0 38.424 33.252999"
   version="1.1"
   id="svg1"
   inkscape:version="1.3.2 (091e20e, 2023-11-25, custom)"
   sodipodi:docname="feas_domain.svg"
   xmlns:inkscape="http://www.inkscape.org/namespaces/inkscape"
   xmlns:sodipodi="http://sodipodi.sourceforge.net/DTD/sodipodi-0.dtd"
   xmlns="http://www.w3.org/2000/svg"
   xmlns:svg="http://www.w3.org/2000/svg"
   xmlns:ns2="http://www.iki.fi/pav/software/textext/">
  <sodipodi:namedview
     id="namedview1"
     pagecolor="#ffffff"
     bordercolor="#000000"
     borderopacity="0.25"
     inkscape:showpageshadow="2"
     inkscape:pageopacity="0.0"
     inkscape:pagecheckerboard="0"
     inkscape:deskcolor="#d1d1d1"
     inkscape:document-units="mm"
     inkscape:zoom="4.0970529"
     inkscape:cx="88.722311"
     inkscape:cy="41.127124"
     inkscape:window-width="1920"
     inkscape:window-height="1009"
     inkscape:window-x="1912"
     inkscape:window-y="-8"
     inkscape:window-maximized="1"
     inkscape:current-layer="layer1" />
  <defs
     id="defs1">
    <inkscape:path-effect
       effect="spiro"
       id="path-effect6"
       is_visible="true"
       lpeversion="1" />
    <inkscape:path-effect
       effect="spiro"
       id="path-effect5"
       is_visible="true"
       lpeversion="1" />
    <inkscape:path-effect
       effect="spiro"
       id="path-effect4"
       is_visible="true"
       lpeversion="1" />
    <inkscape:path-effect
       effect="spiro"
       id="path-effect3"
       is_visible="true"
       lpeversion="1" />
    <inkscape:path-effect
       effect="spiro"
       id="path-effect2"
       is_visible="true"
       lpeversion="1" />
    <inkscape:path-effect
       effect="spiro"
       id="path-effect1"
       is_visible="true"
       lpeversion="1" />
  </defs>
  <g
     inkscape:label="Capa 1"
     inkscape:groupmode="layer"
     id="layer1"
     transform="translate(-41.172677,-116.82315)">
    <path
       style="fill:#ffffff;fill-opacity:0;stroke:#000000;stroke-width:0.4;stroke-linecap:round;stroke-dasharray:none"
       d="m 45.592732,133.09719 c -0.724886,-0.72461 -1.155958,-1.71705 -1.2755,-2.735 -0.119542,-1.01795 0.06084,-2.05869 0.435972,-3.01252 0.624293,-1.58735 1.830892,-2.97572 3.400786,-3.6427 0.784947,-0.33349 1.650336,-0.48359 2.499882,-0.40856 0.849546,0.075 1.681213,0.37778 2.365436,0.88689 0.609363,0.45341 1.088911,1.05462 1.595536,1.62052 0.506624,0.56589 1.064707,1.11487 1.762569,1.41469 0.826911,0.35527 1.782332,0.32335 2.644769,0.066 0.862436,-0.25729 1.646227,-0.72524 2.39239,-1.22847 0.963351,-0.6497 1.902888,-1.37704 3.008304,-1.73511 0.552709,-0.17903 1.143433,-0.26047 1.718671,-0.17898 0.575239,0.0815 1.134084,0.33328 1.537181,0.75167 0.277865,0.28841 0.476381,0.64923 0.591289,1.03287 0.114909,0.38365 0.147648,0.78967 0.11661,1.18896 -0.06208,0.79856 -0.373908,1.55782 -0.753151,2.26332 -0.379243,0.7055 -0.828875,1.37171 -1.198882,2.0821 -0.370008,0.71038 -0.662448,1.47968 -0.693233,2.28006 -0.03996,1.03886 0.368326,2.05729 0.968685,2.90605 0.62665,0.88593 1.473391,1.63876 1.872787,2.64774 0.409249,1.03387 0.277227,2.25097 -0.286496,3.2094 -0.563722,0.95843 -1.533532,1.65389 -2.605642,1.94877 -1.07211,0.29488 -2.23562,0.201 -3.274524,-0.1953 -1.038904,-0.3963 -1.954658,-1.08546 -2.680653,-1.92766 -0.866025,-1.00465 -1.460545,-2.20814 -2.132568,-3.35168 -0.672023,-1.14355 -1.460403,-2.26851 -2.581693,-2.97705 -0.706324,-0.44632 -1.515967,-0.70724 -2.335237,-0.87123 -0.81927,-0.16399 -1.653761,-0.23503 -2.484,-0.32883 -0.83024,-0.0938 -1.662682,-0.21168 -2.458787,-0.46528 -0.796105,-0.2536 -1.559584,-0.65003 -2.150501,-1.24072 z"
       id="path3"
       inkscape:path-effect="#path-effect4"
       inkscape:original-d="m 45.592732,133.09719 c -3.142842,-0.88257 -0.559684,-3.81015 -0.839528,-5.74752 -0.279842,-1.93737 5.510736,-2.13111 8.266104,-3.16437 2.755369,-1.03326 2.238738,2.045 3.358105,3.03521 1.11937,0.99021 3.358105,-0.79647 5.037159,-1.16242 1.679051,-0.36595 4.133051,-0.73189 6.264156,-1.16242 2.131105,-0.43053 -1.248527,5.87668 -1.937367,8.84731 -0.688842,2.97063 0.64579,1.89432 0.968685,2.90605 0.322892,1.01174 1.27005,1.80822 1.872787,2.64774 0.602737,0.83953 -5.962788,2.02348 -8.847315,3.03521 -2.884524,1.01174 -3.099787,-4.21915 -4.714261,-6.32873 -1.614474,-2.10958 -6.285685,-1.89432 -9.428525,-2.90606 z"
       transform="translate(2.0665261,1.7436314)" />
    <path
       style="opacity:1;fill:#ffffff;fill-opacity:0;stroke:#0700f2;stroke-width:0.4;stroke-linecap:round;stroke-dasharray:none;stroke-opacity:1"
       d="m 72.392992,136.1324 c 0.07609,-1.2375 -0.202627,-2.4838 -0.716204,-3.61228 -0.513576,-1.12847 -1.256738,-2.14306 -2.112274,-3.04043 -1.71107,-1.79473 -3.846685,-3.11409 -5.889681,-4.51944 -2.544973,-1.75065 -5.040215,-3.69352 -7.98448,-4.62785 -1.472132,-0.46717 -3.046435,-0.66723 -4.572029,-0.42645 -1.525595,0.24079 -2.999267,0.94274 -4.040277,2.08367 -0.957341,1.04923 -1.51526,2.43267 -1.66387,3.84522 -0.14861,1.41255 0.09839,2.85146 0.605341,4.17825 1.013906,2.65359 3.005947,4.8054 5.062424,6.7651 1.886225,1.79746 3.887322,3.51002 6.181813,4.74453 2.294491,1.23451 4.916292,1.97216 7.508922,1.71337 1.880062,-0.18767 3.723652,-0.91487 5.136618,-2.16922 1.412965,-1.25434 2.367739,-3.04863 2.483697,-4.93447 z"
       id="path4"
       inkscape:path-effect="#path-effect5"
       inkscape:original-d="m 72.392992,136.1324 c 2.540105,-2.36789 -5.812105,-7.4481 -8.718159,-11.17215 -2.906051,-3.72405 -11.107576,-1.98042 -16.596786,-2.97063 -5.489209,-0.99021 2.712316,9.85905 4.003895,14.78857 1.291577,4.92953 9.127157,4.30527 13.690735,6.4579 4.563578,2.15263 5.080209,-4.73579 7.620315,-7.10369 z"
       transform="translate(2.0665261,1.7436314)" />
    <path
       style="fill:#ffffff;fill-opacity:0;stroke:#fa0000;stroke-width:0.4;stroke-linecap:round;stroke-dasharray:none;stroke-opacity:1"
       d="m 66.903782,145.10888 c 2.013569,-0.87942 3.669113,-2.46968 4.84342,-4.32679 0.841093,-1.33015 1.45807,-2.82839 1.594121,-4.39626 0.136051,-1.56787 -0.239778,-3.20933 -1.206647,-4.45106 -0.51841,-0.66578 -1.185051,-1.19782 -1.788537,-1.78758 -0.603487,-0.58976 -1.162698,-1.2707 -1.375832,-2.08715 -0.150155,-0.5752 -0.118734,-1.18096 -0.06468,-1.77297 0.05406,-0.59201 0.129712,-1.18798 0.06468,-1.77888 -0.12275,-1.1153 -0.754466,-2.14107 -1.618263,-2.85719 -0.863796,-0.71611 -1.944362,-1.13921 -3.049187,-1.33499 -2.209649,-0.39154 -4.465979,0.0895 -6.698444,0.31745 -1.895951,0.19358 -3.809157,0.20414 -5.698048,0.4575 -1.888891,0.25337 -3.787257,0.7693 -5.344948,1.86734 -1.960846,1.38224 -3.255089,3.68915 -3.350684,6.08631 -0.0478,1.19858 0.193453,2.40866 0.704901,3.49369 0.511448,1.08503 1.292881,2.04266 2.258308,2.75458 1.809546,1.33438 4.155046,1.75866 6.005841,3.03521 1.080611,0.74533 1.950095,1.75236 2.78967,2.76149 0.839576,1.00913 1.671103,2.04107 2.69954,2.85688 1.276753,1.01279 2.837456,1.66158 4.454773,1.86191 1.617316,0.20033 3.286564,-0.0472 4.780016,-0.69949 z"
       id="path5"
       inkscape:path-effect="#path-effect6"
       inkscape:original-d="m 66.903782,145.10888 c 2.992157,0.38747 3.207419,-2.88453 4.84342,-4.32679 1.636001,-1.44226 0.215262,-5.89821 0.387474,-8.84732 0.17221,-2.9491 -2.088052,-2.5401 -3.164369,-3.87473 -1.076314,-1.33463 0,-2.454 0,-3.55185 0,-1.09784 -7.577262,-2.51857 -11.365894,-3.87473 -3.788629,-1.35616 -7.29742,1.52837 -11.042996,2.32484 -3.745579,0.79648 -0.301369,8.22305 -0.387475,12.33458 -0.08611,4.11152 4.025421,2.02347 6.005841,3.03521 1.980422,1.01174 3.637947,3.74558 5.48921,5.61837 1.851263,1.87278 6.113473,0.77494 9.234789,1.16242 z"
       transform="translate(2.0665261,1.7436314)" />
    <g
       transform="matrix(0.352778,0,0,0.352778,57.837653,132.28305)"
       ns2:version="1.10.2"
       ns2:texconverter="pdflatex"
       ns2:pdfconverter="inkscape"
       ns2:text="AC"
       ns2:preamble="C:\Users\eroot\AppData\Roaming\inkscape\extensions\circuitSymbols\circuitSymbolsPreamble.tex"
       ns2:scale="1.0"
       ns2:alignment="middle center"
       ns2:stroke-to-path="0"
       id="g6660"
       ns2:jacobian_sqrt="0.352778">
      <defs
         id="id-cc04e1e6-b5ec-4a97-84c2-75fc1e13a5fb">
        <g
           id="id-366ea792-d2f3-46a0-8db0-3d1e466ca78b">
          <g
             id="id-817e9149-398b-4288-971e-ee5d3947f99b">
            <path
               d="m 3.96875,-6.9375 c -0.046875,-0.125 -0.078125,-0.203125 -0.234375,-0.203125 -0.15625,0 -0.1875,0.0625 -0.234375,0.203125 L 1.4375,-0.984375 C 1.25,-0.46875 0.859375,-0.3125 0.3125,-0.3125 V 0 c 0.234375,-0.015625 0.671875,-0.03125 1.015625,-0.03125 0.3125,0 0.828125,0.015625 1.15625,0.03125 v -0.3125 c -0.5,0 -0.75,-0.25 -0.75,-0.5 0,-0.03125 0.015625,-0.140625 0.015625,-0.15625 L 2.21875,-2.265625 H 4.671875 L 5.203125,-0.75 c 0.015625,0.046875 0.03125,0.109375 0.03125,0.140625 0,0.296875 -0.5625,0.296875 -0.828125,0.296875 V 0 c 0.359375,-0.03125 1.0625,-0.03125 1.4375,-0.03125 0.421875,0 0.890625,0.015625 1.296875,0.03125 V -0.3125 H 6.96875 C 6.375,-0.3125 6.234375,-0.375 6.125,-0.703125 Z m -0.53125,1.109375 1.125,3.25 H 2.328125 Z m 0,0"
               id="id-3124bbe1-087c-4672-a5f6-58b2d6c9d78d" />
          </g>
          <g
             id="id-9020f0e4-a717-49a5-a855-7d85b7854c67">
            <path
               d="m 0.5625,-3.40625 c 0,2.0625 1.609375,3.625 3.46875,3.625 1.625,0 2.59375,-1.390625 2.59375,-2.546875 C 6.625,-2.421875 6.625,-2.5 6.5,-2.5 6.390625,-2.5 6.390625,-2.4375 6.375,-2.328125 6.296875,-0.90625 5.234375,-0.09375 4.140625,-0.09375 c -0.609375,0 -2.5625,-0.328125 -2.5625,-3.3125 0,-2.96875 1.953125,-3.3125 2.5625,-3.3125 1.078125,0 1.96875,0.90625 2.171875,2.359375 C 6.328125,-4.21875 6.328125,-4.1875 6.46875,-4.1875 6.625,-4.1875 6.625,-4.21875 6.625,-4.421875 V -6.78125 c 0,-0.171875 0,-0.25 -0.109375,-0.25 -0.03125,0 -0.078125,0 -0.15625,0.125 l -0.5,0.734375 C 5.5,-6.53125 4.984375,-7.03125 4.03125,-7.03125 c -1.875,0 -3.46875,1.59375 -3.46875,3.625 z m 0,0"
               id="id-9579ff5c-b5f7-47ac-b448-f66bb5e53c3c" />
          </g>
        </g>
      </defs>
      <g
         fill="#000000"
         fill-opacity="1"
         id="id-9f2b51c2-7176-48cf-8e10-b69a4c68acab"
         transform="translate(-149.025,-127.624)">
        <g
           transform="translate(148.712,134.765)"
           id="g6894">
          <path
             d="m 3.96875,-6.9375 c -0.046875,-0.125 -0.078125,-0.203125 -0.234375,-0.203125 -0.15625,0 -0.1875,0.0625 -0.234375,0.203125 L 1.4375,-0.984375 C 1.25,-0.46875 0.859375,-0.3125 0.3125,-0.3125 V 0 c 0.234375,-0.015625 0.671875,-0.03125 1.015625,-0.03125 0.3125,0 0.828125,0.015625 1.15625,0.03125 v -0.3125 c -0.5,0 -0.75,-0.25 -0.75,-0.5 0,-0.03125 0.015625,-0.140625 0.015625,-0.15625 L 2.21875,-2.265625 H 4.671875 L 5.203125,-0.75 c 0.015625,0.046875 0.03125,0.109375 0.03125,0.140625 0,0.296875 -0.5625,0.296875 -0.828125,0.296875 V 0 c 0.359375,-0.03125 1.0625,-0.03125 1.4375,-0.03125 0.421875,0 0.890625,0.015625 1.296875,0.03125 V -0.3125 H 6.96875 C 6.375,-0.3125 6.234375,-0.375 6.125,-0.703125 Z m -0.53125,1.109375 1.125,3.25 H 2.328125 Z m 0,0"
             id="id-8481dffb-b6ef-4d6a-953c-b7e2cf764e05" />
        </g>
      </g>
      <g
         fill="#000000"
         fill-opacity="1"
         id="id-ca051b0c-b628-4419-9e9f-48bdf0e0ce65"
         transform="translate(-149.025,-127.624)">
        <g
           transform="translate(155.905,134.765)"
           id="g8144">
          <path
             d="m 0.5625,-3.40625 c 0,2.0625 1.609375,3.625 3.46875,3.625 1.625,0 2.59375,-1.390625 2.59375,-2.546875 C 6.625,-2.421875 6.625,-2.5 6.5,-2.5 6.390625,-2.5 6.390625,-2.4375 6.375,-2.328125 6.296875,-0.90625 5.234375,-0.09375 4.140625,-0.09375 c -0.609375,0 -2.5625,-0.328125 -2.5625,-3.3125 0,-2.96875 1.953125,-3.3125 2.5625,-3.3125 1.078125,0 1.96875,0.90625 2.171875,2.359375 C 6.328125,-4.21875 6.328125,-4.1875 6.46875,-4.1875 6.625,-4.1875 6.625,-4.21875 6.625,-4.421875 V -6.78125 c 0,-0.171875 0,-0.25 -0.109375,-0.25 -0.03125,0 -0.078125,0 -0.15625,0.125 l -0.5,0.734375 C 5.5,-6.53125 4.984375,-7.03125 4.03125,-7.03125 c -1.875,0 -3.46875,1.59375 -3.46875,3.625 z m 0,0"
             id="id-17bcef76-1807-4cf7-9adc-820292c29065" />
        </g>
      </g>
    </g>
    <g
       transform="matrix(0.352778,0,0,0.352778,60.309057,118.56674)"
       ns2:version="1.10.2"
       ns2:texconverter="pdflatex"
       ns2:pdfconverter="inkscape"
       ns2:text="Relaxation"
       ns2:preamble="C:\Users\eroot\AppData\Roaming\inkscape\extensions\circuitSymbols\circuitSymbolsPreamble.tex"
       ns2:scale="1.0"
       ns2:alignment="middle center"
       ns2:stroke-to-path="0"
       id="g9839"
       ns2:jacobian_sqrt="0.352778"
       style="fill:#fa0000;fill-opacity:1">
      <defs
         id="id-3fa8aa22-0d24-4974-8b7e-fe427f152292">
        <g
           id="id-a32f5b1d-8e06-46b2-aefe-11b26d7f0fc4">
          <g
             id="id-ec44a078-16c4-4294-8628-902f69018060">
            <path
               d="M 2.234375,-3.515625 V -6.09375 c 0,-0.234375 0,-0.359375 0.21875,-0.390625 C 2.546875,-6.5 2.84375,-6.5 3.046875,-6.5 c 0.890625,0 2,0.046875 2,1.484375 0,0.6875 -0.234375,1.5 -1.703125,1.5 z m 2.109375,0.125 C 5.296875,-3.625 6.078125,-4.234375 6.078125,-5.015625 6.078125,-5.96875 4.9375,-6.8125 3.484375,-6.8125 H 0.34375 V -6.5 h 0.25 c 0.765625,0 0.78125,0.109375 0.78125,0.46875 v 5.25 c 0,0.359375 -0.015625,0.46875 -0.78125,0.46875 h -0.25 V 0 c 0.359375,-0.03125 1.078125,-0.03125 1.453125,-0.03125 0.390625,0 1.109375,0 1.46875,0.03125 v -0.3125 h -0.25 c -0.765625,0 -0.78125,-0.109375 -0.78125,-0.46875 V -3.296875 H 3.375 c 0.15625,0 0.578125,0 0.9375,0.34375 0.375,0.34375 0.375,0.65625 0.375,1.328125 0,0.640625 0,1.046875 0.40625,1.421875 0.40625,0.359375 0.953125,0.421875 1.25,0.421875 0.78125,0 0.953125,-0.8125 0.953125,-1.09375 0,-0.0625 0,-0.171875 -0.125,-0.171875 -0.109375,0 -0.109375,0.09375 -0.125,0.15625 C 6.984375,-0.171875 6.640625,0 6.390625,0 5.90625,0 5.828125,-0.515625 5.6875,-1.4375 L 5.546875,-2.234375 C 5.375,-2.875 4.890625,-3.203125 4.34375,-3.390625 Z m 0,0"
               id="id-434b5bdc-0a3f-426d-b6d6-04d9c7a7d571" />
          </g>
          <g
             id="id-681e30f2-aa92-46e5-b45b-5e8b3170b5e5">
            <path
               d="M 1.109375,-2.515625 C 1.171875,-4 2.015625,-4.25 2.359375,-4.25 c 1.015625,0 1.125,1.34375 1.125,1.734375 z m 0,0.21875 h 2.78125 c 0.21875,0 0.25,0 0.25,-0.21875 0,-0.984375 -0.546875,-1.953125 -1.78125,-1.953125 -1.15625,0 -2.078125,1.03125 -2.078125,2.28125 0,1.328125 1.046875,2.296875 2.1875,2.296875 C 3.6875,0.109375 4.140625,-1 4.140625,-1.1875 4.140625,-1.28125 4.0625,-1.3125 4,-1.3125 c -0.078125,0 -0.109375,0.0625 -0.125,0.140625 -0.34375,1.03125 -1.25,1.03125 -1.34375,1.03125 -0.5,0 -0.890625,-0.296875 -1.125,-0.671875 -0.296875,-0.46875 -0.296875,-1.125 -0.296875,-1.484375 z m 0,0"
               id="id-449ed855-b60b-4f6a-a13d-06113d52eaf2" />
          </g>
          <g
             id="id-deaf7dde-3235-4525-a6a0-119c2d7a3437">
            <path
               d="M 1.765625,-6.921875 0.328125,-6.8125 V -6.5 c 0.703125,0 0.78125,0.0625 0.78125,0.5625 V -0.75 c 0,0.4375 -0.109375,0.4375 -0.78125,0.4375 V 0 C 0.65625,-0.015625 1.1875,-0.03125 1.4375,-0.03125 c 0.25,0 0.734375,0.015625 1.109375,0.03125 v -0.3125 c -0.671875,0 -0.78125,0 -0.78125,-0.4375 z m 0,0"
               id="id-9fe91603-73f8-4954-9189-de4361f1799c" />
          </g>
          <g
             id="id-2eb2d192-bdfb-40fc-a768-0e09f6c5152b">
            <path
               d="m 3.3125,-0.75 c 0.046875,0.390625 0.3125,0.8125 0.78125,0.8125 0.21875,0 0.828125,-0.140625 0.828125,-0.953125 v -0.5625 h -0.25 v 0.5625 c 0,0.578125 -0.25,0.640625 -0.359375,0.640625 -0.328125,0 -0.375,-0.453125 -0.375,-0.5 v -1.984375 c 0,-0.421875 0,-0.8125 -0.359375,-1.1875 C 3.1875,-4.3125 2.6875,-4.46875 2.21875,-4.46875 c -0.828125,0 -1.515625,0.46875 -1.515625,1.125 0,0.296875 0.203125,0.46875 0.46875,0.46875 0.28125,0 0.453125,-0.203125 0.453125,-0.453125 0,-0.125 -0.046875,-0.453125 -0.515625,-0.453125 C 1.390625,-4.140625 1.875,-4.25 2.1875,-4.25 c 0.5,0 1.0625,0.390625 1.0625,1.28125 v 0.359375 c -0.515625,0.03125 -1.203125,0.0625 -1.828125,0.359375 -0.75,0.34375 -1,0.859375 -1,1.296875 0,0.8125 0.96875,1.0625 1.59375,1.0625 0.65625,0 1.109375,-0.40625 1.296875,-0.859375 z M 3.25,-2.390625 v 1 c 0,0.9375 -0.71875,1.28125 -1.171875,1.28125 -0.484375,0 -0.890625,-0.34375 -0.890625,-0.84375 0,-0.546875 0.421875,-1.375 2.0625,-1.4375 z m 0,0"
               id="id-99491e17-92b0-4346-abe8-9f19185cddfc" />
          </g>
          <g
             id="id-086c2695-3605-44e5-9c9d-e695f50fd628">
            <path
               d="M 2.859375,-2.34375 C 3.15625,-2.71875 3.53125,-3.203125 3.78125,-3.46875 4.09375,-3.828125 4.5,-3.984375 4.96875,-3.984375 v -0.3125 c -0.265625,0.015625 -0.5625,0.03125 -0.828125,0.03125 -0.296875,0 -0.828125,-0.015625 -0.953125,-0.03125 v 0.3125 c 0.21875,0.015625 0.296875,0.140625 0.296875,0.3125 0,0.15625 -0.109375,0.28125 -0.15625,0.34375 L 2.71875,-2.546875 1.9375,-3.5625 C 1.84375,-3.65625 1.84375,-3.671875 1.84375,-3.734375 c 0,-0.15625 0.15625,-0.25 0.34375,-0.25 v -0.3125 c -0.25,0.015625 -0.90625,0.03125 -1.078125,0.03125 -0.203125,0 -0.671875,-0.015625 -0.9375,-0.03125 v 0.3125 c 0.703125,0 0.703125,0 1.171875,0.609375 l 0.984375,1.28125 -0.9375,1.1875 C 0.921875,-0.328125 0.328125,-0.3125 0.125,-0.3125 V 0 c 0.25,-0.015625 0.5625,-0.03125 0.828125,-0.03125 0.28125,0 0.703125,0.015625 0.9375,0.03125 v -0.3125 c -0.21875,-0.03125 -0.28125,-0.15625 -0.28125,-0.3125 0,-0.21875 0.28125,-0.546875 0.890625,-1.265625 l 0.765625,1 C 3.34375,-0.78125 3.46875,-0.625 3.46875,-0.5625 c 0,0.09375 -0.09375,0.25 -0.359375,0.25 V 0 C 3.40625,-0.015625 3.96875,-0.03125 4.1875,-0.03125 c 0.265625,0 0.65625,0.015625 0.953125,0.03125 v -0.3125 c -0.53125,0 -0.71875,-0.015625 -0.9375,-0.3125 z m 0,0"
               id="id-7596dc3d-3add-449f-96ec-43a235373092" />
          </g>
          <g
             id="id-d0fe311c-b20a-43bc-b632-9ebd819f0dd6">
            <path
               d="m 1.71875,-3.984375 h 1.4375 v -0.3125 H 1.71875 V -6.125 h -0.25 c 0,0.8125 -0.296875,1.875 -1.28125,1.921875 v 0.21875 h 0.84375 v 2.75 c 0,1.21875 0.9375,1.34375 1.296875,1.34375 0.703125,0 0.984375,-0.703125 0.984375,-1.34375 v -0.5625 h -0.25 V -1.25 c 0,0.734375 -0.296875,1.109375 -0.671875,1.109375 -0.671875,0 -0.671875,-0.90625 -0.671875,-1.078125 z m 0,0"
               id="id-8634e480-a0c4-4f94-8722-3ae7a0c44286" />
          </g>
          <g
             id="id-8c12af54-dbfe-468b-bbb6-06d9da14255e">
            <path
               d="M 1.765625,-4.40625 0.375,-4.296875 v 0.3125 c 0.640625,0 0.734375,0.0625 0.734375,0.546875 V -0.75 c 0,0.4375 -0.109375,0.4375 -0.78125,0.4375 V 0 C 0.640625,-0.015625 1.1875,-0.03125 1.421875,-0.03125 1.78125,-0.03125 2.125,-0.015625 2.46875,0 v -0.3125 c -0.671875,0 -0.703125,-0.046875 -0.703125,-0.4375 z m 0.03125,-1.734375 c 0,-0.3125 -0.234375,-0.53125 -0.515625,-0.53125 -0.3125,0 -0.53125,0.265625 -0.53125,0.53125 0,0.265625 0.21875,0.53125 0.53125,0.53125 0.28125,0 0.515625,-0.21875 0.515625,-0.53125 z m 0,0"
               id="id-2be3cf50-a2e7-4991-b0d4-16356777ae52" />
          </g>
          <g
             id="id-dee50f09-4b42-46e7-977a-32e6736e96d3">
            <path
               d="M 4.6875,-2.140625 C 4.6875,-3.40625 3.703125,-4.46875 2.5,-4.46875 c -1.25,0 -2.21875,1.09375 -2.21875,2.328125 0,1.296875 1.03125,2.25 2.203125,2.25 1.203125,0 2.203125,-0.984375 2.203125,-2.25 z m -2.1875,2 c -0.4375,0 -0.875,-0.203125 -1.140625,-0.671875 -0.25,-0.4375 -0.25,-1.046875 -0.25,-1.40625 0,-0.390625 0,-0.921875 0.234375,-1.359375 C 1.609375,-4.03125 2.078125,-4.25 2.484375,-4.25 c 0.4375,0 0.859375,0.21875 1.125,0.65625 0.265625,0.421875 0.265625,1 0.265625,1.375 0,0.359375 0,0.90625 -0.21875,1.34375 C 3.421875,-0.421875 2.984375,-0.140625 2.5,-0.140625 Z m 0,0"
               id="id-23806ffc-b5bb-4727-93ad-d0c21bc848e7" />
          </g>
          <g
             id="id-756dbb0e-18e4-49a4-8e57-0900708ef0ca">
            <path
               d="M 1.09375,-3.421875 V -0.75 c 0,0.4375 -0.109375,0.4375 -0.78125,0.4375 V 0 c 0.359375,-0.015625 0.859375,-0.03125 1.140625,-0.03125 0.25,0 0.765625,0.015625 1.109375,0.03125 v -0.3125 c -0.671875,0 -0.78125,0 -0.78125,-0.4375 V -2.59375 C 1.78125,-3.625 2.5,-4.1875 3.125,-4.1875 c 0.640625,0 0.75,0.53125 0.75,1.109375 V -0.75 c 0,0.4375 -0.109375,0.4375 -0.78125,0.4375 V 0 c 0.34375,-0.015625 0.859375,-0.03125 1.125,-0.03125 0.25,0 0.78125,0.015625 1.109375,0.03125 v -0.3125 c -0.515625,0 -0.765625,0 -0.765625,-0.296875 v -1.90625 c 0,-0.859375 0,-1.15625 -0.3125,-1.515625 -0.140625,-0.171875 -0.46875,-0.375 -1.046875,-0.375 C 2.46875,-4.40625 2,-3.984375 1.71875,-3.359375 V -4.40625 L 0.3125,-4.296875 v 0.3125 c 0.703125,0 0.78125,0.0625 0.78125,0.5625 z m 0,0"
               id="id-fd7d42fb-6365-4004-a000-11d28e7ab0d3" />
          </g>
        </g>
      </defs>
      <g
         fill="#000000"
         fill-opacity="1"
         id="id-a358d367-b33a-4217-b8a2-7a1536107a76"
         transform="translate(-149.056,-127.843)"
         style="fill:#fa0000;fill-opacity:1">
        <g
           transform="translate(148.712,134.765)"
           id="g7800"
           style="fill:#fa0000;fill-opacity:1">
          <path
             d="M 2.234375,-3.515625 V -6.09375 c 0,-0.234375 0,-0.359375 0.21875,-0.390625 C 2.546875,-6.5 2.84375,-6.5 3.046875,-6.5 c 0.890625,0 2,0.046875 2,1.484375 0,0.6875 -0.234375,1.5 -1.703125,1.5 z m 2.109375,0.125 C 5.296875,-3.625 6.078125,-4.234375 6.078125,-5.015625 6.078125,-5.96875 4.9375,-6.8125 3.484375,-6.8125 H 0.34375 V -6.5 h 0.25 c 0.765625,0 0.78125,0.109375 0.78125,0.46875 v 5.25 c 0,0.359375 -0.015625,0.46875 -0.78125,0.46875 h -0.25 V 0 c 0.359375,-0.03125 1.078125,-0.03125 1.453125,-0.03125 0.390625,0 1.109375,0 1.46875,0.03125 v -0.3125 h -0.25 c -0.765625,0 -0.78125,-0.109375 -0.78125,-0.46875 V -3.296875 H 3.375 c 0.15625,0 0.578125,0 0.9375,0.34375 0.375,0.34375 0.375,0.65625 0.375,1.328125 0,0.640625 0,1.046875 0.40625,1.421875 0.40625,0.359375 0.953125,0.421875 1.25,0.421875 0.78125,0 0.953125,-0.8125 0.953125,-1.09375 0,-0.0625 0,-0.171875 -0.125,-0.171875 -0.109375,0 -0.109375,0.09375 -0.125,0.15625 C 6.984375,-0.171875 6.640625,0 6.390625,0 5.90625,0 5.828125,-0.515625 5.6875,-1.4375 L 5.546875,-2.234375 C 5.375,-2.875 4.890625,-3.203125 4.34375,-3.390625 Z m 0,0"
             id="id-6f2a5f57-f04e-479b-854c-d22ee4bfd0d1"
             style="fill:#fa0000;fill-opacity:1" />
        </g>
        <g
           transform="translate(156.045,134.765)"
           id="g4219"
           style="fill:#fa0000;fill-opacity:1">
          <path
             d="M 1.109375,-2.515625 C 1.171875,-4 2.015625,-4.25 2.359375,-4.25 c 1.015625,0 1.125,1.34375 1.125,1.734375 z m 0,0.21875 h 2.78125 c 0.21875,0 0.25,0 0.25,-0.21875 0,-0.984375 -0.546875,-1.953125 -1.78125,-1.953125 -1.15625,0 -2.078125,1.03125 -2.078125,2.28125 0,1.328125 1.046875,2.296875 2.1875,2.296875 C 3.6875,0.109375 4.140625,-1 4.140625,-1.1875 4.140625,-1.28125 4.0625,-1.3125 4,-1.3125 c -0.078125,0 -0.109375,0.0625 -0.125,0.140625 -0.34375,1.03125 -1.25,1.03125 -1.34375,1.03125 -0.5,0 -0.890625,-0.296875 -1.125,-0.671875 -0.296875,-0.46875 -0.296875,-1.125 -0.296875,-1.484375 z m 0,0"
             id="id-ea10cc25-7a51-430d-b333-b9775ec1329a"
             style="fill:#fa0000;fill-opacity:1" />
        </g>
        <g
           transform="translate(160.473,134.765)"
           id="g5841"
           style="fill:#fa0000;fill-opacity:1">
          <path
             d="M 1.765625,-6.921875 0.328125,-6.8125 V -6.5 c 0.703125,0 0.78125,0.0625 0.78125,0.5625 V -0.75 c 0,0.4375 -0.109375,0.4375 -0.78125,0.4375 V 0 C 0.65625,-0.015625 1.1875,-0.03125 1.4375,-0.03125 c 0.25,0 0.734375,0.015625 1.109375,0.03125 v -0.3125 c -0.671875,0 -0.78125,0 -0.78125,-0.4375 z m 0,0"
             id="id-7f0bc0b9-beb8-4056-a51f-2b96ed242947"
             style="fill:#fa0000;fill-opacity:1" />
        </g>
        <g
           transform="translate(163.24,134.765)"
           id="g4625"
           style="fill:#fa0000;fill-opacity:1">
          <path
             d="m 3.3125,-0.75 c 0.046875,0.390625 0.3125,0.8125 0.78125,0.8125 0.21875,0 0.828125,-0.140625 0.828125,-0.953125 v -0.5625 h -0.25 v 0.5625 c 0,0.578125 -0.25,0.640625 -0.359375,0.640625 -0.328125,0 -0.375,-0.453125 -0.375,-0.5 v -1.984375 c 0,-0.421875 0,-0.8125 -0.359375,-1.1875 C 3.1875,-4.3125 2.6875,-4.46875 2.21875,-4.46875 c -0.828125,0 -1.515625,0.46875 -1.515625,1.125 0,0.296875 0.203125,0.46875 0.46875,0.46875 0.28125,0 0.453125,-0.203125 0.453125,-0.453125 0,-0.125 -0.046875,-0.453125 -0.515625,-0.453125 C 1.390625,-4.140625 1.875,-4.25 2.1875,-4.25 c 0.5,0 1.0625,0.390625 1.0625,1.28125 v 0.359375 c -0.515625,0.03125 -1.203125,0.0625 -1.828125,0.359375 -0.75,0.34375 -1,0.859375 -1,1.296875 0,0.8125 0.96875,1.0625 1.59375,1.0625 0.65625,0 1.109375,-0.40625 1.296875,-0.859375 z M 3.25,-2.390625 v 1 c 0,0.9375 -0.71875,1.28125 -1.171875,1.28125 -0.484375,0 -0.890625,-0.34375 -0.890625,-0.84375 0,-0.546875 0.421875,-1.375 2.0625,-1.4375 z m 0,0"
             id="id-695edf8a-d318-4629-9f69-186e0be08388"
             style="fill:#fa0000;fill-opacity:1" />
        </g>
        <g
           transform="translate(168.222,134.765)"
           id="g4263"
           style="fill:#fa0000;fill-opacity:1">
          <path
             d="M 2.859375,-2.34375 C 3.15625,-2.71875 3.53125,-3.203125 3.78125,-3.46875 4.09375,-3.828125 4.5,-3.984375 4.96875,-3.984375 v -0.3125 c -0.265625,0.015625 -0.5625,0.03125 -0.828125,0.03125 -0.296875,0 -0.828125,-0.015625 -0.953125,-0.03125 v 0.3125 c 0.21875,0.015625 0.296875,0.140625 0.296875,0.3125 0,0.15625 -0.109375,0.28125 -0.15625,0.34375 L 2.71875,-2.546875 1.9375,-3.5625 C 1.84375,-3.65625 1.84375,-3.671875 1.84375,-3.734375 c 0,-0.15625 0.15625,-0.25 0.34375,-0.25 v -0.3125 c -0.25,0.015625 -0.90625,0.03125 -1.078125,0.03125 -0.203125,0 -0.671875,-0.015625 -0.9375,-0.03125 v 0.3125 c 0.703125,0 0.703125,0 1.171875,0.609375 l 0.984375,1.28125 -0.9375,1.1875 C 0.921875,-0.328125 0.328125,-0.3125 0.125,-0.3125 V 0 c 0.25,-0.015625 0.5625,-0.03125 0.828125,-0.03125 0.28125,0 0.703125,0.015625 0.9375,0.03125 v -0.3125 c -0.21875,-0.03125 -0.28125,-0.15625 -0.28125,-0.3125 0,-0.21875 0.28125,-0.546875 0.890625,-1.265625 l 0.765625,1 C 3.34375,-0.78125 3.46875,-0.625 3.46875,-0.5625 c 0,0.09375 -0.09375,0.25 -0.359375,0.25 V 0 C 3.40625,-0.015625 3.96875,-0.03125 4.1875,-0.03125 c 0.265625,0 0.65625,0.015625 0.953125,0.03125 v -0.3125 c -0.53125,0 -0.71875,-0.015625 -0.9375,-0.3125 z m 0,0"
             id="id-972f7333-75a4-46f8-b407-15163e0bb236"
             style="fill:#fa0000;fill-opacity:1" />
        </g>
        <g
           transform="translate(173.48,134.765)"
           id="g7679"
           style="fill:#fa0000;fill-opacity:1">
          <path
             d="m 3.3125,-0.75 c 0.046875,0.390625 0.3125,0.8125 0.78125,0.8125 0.21875,0 0.828125,-0.140625 0.828125,-0.953125 v -0.5625 h -0.25 v 0.5625 c 0,0.578125 -0.25,0.640625 -0.359375,0.640625 -0.328125,0 -0.375,-0.453125 -0.375,-0.5 v -1.984375 c 0,-0.421875 0,-0.8125 -0.359375,-1.1875 C 3.1875,-4.3125 2.6875,-4.46875 2.21875,-4.46875 c -0.828125,0 -1.515625,0.46875 -1.515625,1.125 0,0.296875 0.203125,0.46875 0.46875,0.46875 0.28125,0 0.453125,-0.203125 0.453125,-0.453125 0,-0.125 -0.046875,-0.453125 -0.515625,-0.453125 C 1.390625,-4.140625 1.875,-4.25 2.1875,-4.25 c 0.5,0 1.0625,0.390625 1.0625,1.28125 v 0.359375 c -0.515625,0.03125 -1.203125,0.0625 -1.828125,0.359375 -0.75,0.34375 -1,0.859375 -1,1.296875 0,0.8125 0.96875,1.0625 1.59375,1.0625 0.65625,0 1.109375,-0.40625 1.296875,-0.859375 z M 3.25,-2.390625 v 1 c 0,0.9375 -0.71875,1.28125 -1.171875,1.28125 -0.484375,0 -0.890625,-0.34375 -0.890625,-0.84375 0,-0.546875 0.421875,-1.375 2.0625,-1.4375 z m 0,0"
             id="id-934a7458-7a46-40f1-894e-7a7ace3173ce"
             style="fill:#fa0000;fill-opacity:1" />
        </g>
        <g
           transform="translate(178.461,134.765)"
           id="g3378"
           style="fill:#fa0000;fill-opacity:1">
          <path
             d="m 1.71875,-3.984375 h 1.4375 v -0.3125 H 1.71875 V -6.125 h -0.25 c 0,0.8125 -0.296875,1.875 -1.28125,1.921875 v 0.21875 h 0.84375 v 2.75 c 0,1.21875 0.9375,1.34375 1.296875,1.34375 0.703125,0 0.984375,-0.703125 0.984375,-1.34375 v -0.5625 h -0.25 V -1.25 c 0,0.734375 -0.296875,1.109375 -0.671875,1.109375 -0.671875,0 -0.671875,-0.90625 -0.671875,-1.078125 z m 0,0"
             id="id-c88718d6-3b66-43e4-a4d2-cd355606da3d"
             style="fill:#fa0000;fill-opacity:1" />
        </g>
        <g
           transform="translate(182.336,134.765)"
           id="g3637"
           style="fill:#fa0000;fill-opacity:1">
          <path
             d="M 1.765625,-4.40625 0.375,-4.296875 v 0.3125 c 0.640625,0 0.734375,0.0625 0.734375,0.546875 V -0.75 c 0,0.4375 -0.109375,0.4375 -0.78125,0.4375 V 0 C 0.640625,-0.015625 1.1875,-0.03125 1.421875,-0.03125 1.78125,-0.03125 2.125,-0.015625 2.46875,0 v -0.3125 c -0.671875,0 -0.703125,-0.046875 -0.703125,-0.4375 z m 0.03125,-1.734375 c 0,-0.3125 -0.234375,-0.53125 -0.515625,-0.53125 -0.3125,0 -0.53125,0.265625 -0.53125,0.53125 0,0.265625 0.21875,0.53125 0.53125,0.53125 0.28125,0 0.515625,-0.21875 0.515625,-0.53125 z m 0,0"
             id="id-b499afbf-c3dd-4091-bf13-02bee14578c7"
             style="fill:#fa0000;fill-opacity:1" />
        </g>
        <g
           transform="translate(185.103,134.765)"
           id="g2801"
           style="fill:#fa0000;fill-opacity:1">
          <path
             d="M 4.6875,-2.140625 C 4.6875,-3.40625 3.703125,-4.46875 2.5,-4.46875 c -1.25,0 -2.21875,1.09375 -2.21875,2.328125 0,1.296875 1.03125,2.25 2.203125,2.25 1.203125,0 2.203125,-0.984375 2.203125,-2.25 z m -2.1875,2 c -0.4375,0 -0.875,-0.203125 -1.140625,-0.671875 -0.25,-0.4375 -0.25,-1.046875 -0.25,-1.40625 0,-0.390625 0,-0.921875 0.234375,-1.359375 C 1.609375,-4.03125 2.078125,-4.25 2.484375,-4.25 c 0.4375,0 0.859375,0.21875 1.125,0.65625 0.265625,0.421875 0.265625,1 0.265625,1.375 0,0.359375 0,0.90625 -0.21875,1.34375 C 3.421875,-0.421875 2.984375,-0.140625 2.5,-0.140625 Z m 0,0"
             id="id-73b9d750-c4b9-4927-951b-cb2e586d5d49"
             style="fill:#fa0000;fill-opacity:1" />
        </g>
        <g
           transform="translate(190.085,134.765)"
           id="g2727"
           style="fill:#fa0000;fill-opacity:1">
          <path
             d="M 1.09375,-3.421875 V -0.75 c 0,0.4375 -0.109375,0.4375 -0.78125,0.4375 V 0 c 0.359375,-0.015625 0.859375,-0.03125 1.140625,-0.03125 0.25,0 0.765625,0.015625 1.109375,0.03125 v -0.3125 c -0.671875,0 -0.78125,0 -0.78125,-0.4375 V -2.59375 C 1.78125,-3.625 2.5,-4.1875 3.125,-4.1875 c 0.640625,0 0.75,0.53125 0.75,1.109375 V -0.75 c 0,0.4375 -0.109375,0.4375 -0.78125,0.4375 V 0 c 0.34375,-0.015625 0.859375,-0.03125 1.125,-0.03125 0.25,0 0.78125,0.015625 1.109375,0.03125 v -0.3125 c -0.515625,0 -0.765625,0 -0.765625,-0.296875 v -1.90625 c 0,-0.859375 0,-1.15625 -0.3125,-1.515625 -0.140625,-0.171875 -0.46875,-0.375 -1.046875,-0.375 C 2.46875,-4.40625 2,-3.984375 1.71875,-3.359375 V -4.40625 L 0.3125,-4.296875 v 0.3125 c 0.703125,0 0.78125,0.0625 0.78125,0.5625 z m 0,0"
             id="id-dced1293-72e5-41e6-b657-0017a3318678"
             style="fill:#fa0000;fill-opacity:1" />
        </g>
      </g>
    </g>
    <g
       transform="matrix(0.352778,0,0,0.352778,43.239291,121.26005)"
       ns2:version="1.10.2"
       ns2:texconverter="pdflatex"
       ns2:pdfconverter="inkscape"
       ns2:text="DC"
       ns2:preamble="C:\Users\eroot\AppData\Roaming\inkscape\extensions\circuitSymbols\circuitSymbolsPreamble.tex"
       ns2:scale="1.0"
       ns2:alignment="middle center"
       ns2:stroke-to-path="0"
       id="g2890"
       ns2:jacobian_sqrt="0.352778"
       style="fill:#0700f2;fill-opacity:0.972549">
      <defs
         id="id-ecf90d79-6d94-4572-840a-751cfc05558d">
        <g
           id="id-fef5f2ea-3b9e-494b-b271-e10694c72f03">
          <g
             id="id-7912f7fc-4edc-4784-90d7-0ff120b89018">
            <path
               d="M 0.34375,-6.8125 V -6.5 h 0.25 c 0.765625,0 0.78125,0.109375 0.78125,0.46875 v 5.25 c 0,0.359375 -0.015625,0.46875 -0.78125,0.46875 h -0.25 V 0 H 4 C 5.671875,0 7.046875,-1.46875 7.046875,-3.34375 7.046875,-5.25 5.703125,-6.8125 4,-6.8125 Z m 2.375,6.5 C 2.25,-0.3125 2.234375,-0.375 2.234375,-0.703125 V -6.09375 C 2.234375,-6.4375 2.25,-6.5 2.71875,-6.5 h 1 c 0.625,0 1.3125,0.21875 1.8125,0.921875 0.4375,0.59375 0.515625,1.453125 0.515625,2.234375 0,1.09375 -0.1875,1.703125 -0.546875,2.1875 -0.203125,0.265625 -0.765625,0.84375 -1.765625,0.84375 z m 0,0"
               id="id-dfbc34bd-4f97-46ae-8ad4-cc2bebf04ba0" />
          </g>
          <g
             id="id-32dd0a07-1f58-481f-982d-ed67b857e2a5">
            <path
               d="m 0.5625,-3.40625 c 0,2.0625 1.609375,3.625 3.46875,3.625 1.625,0 2.59375,-1.390625 2.59375,-2.546875 C 6.625,-2.421875 6.625,-2.5 6.5,-2.5 6.390625,-2.5 6.390625,-2.4375 6.375,-2.328125 6.296875,-0.90625 5.234375,-0.09375 4.140625,-0.09375 c -0.609375,0 -2.5625,-0.328125 -2.5625,-3.3125 0,-2.96875 1.953125,-3.3125 2.5625,-3.3125 1.078125,0 1.96875,0.90625 2.171875,2.359375 C 6.328125,-4.21875 6.328125,-4.1875 6.46875,-4.1875 6.625,-4.1875 6.625,-4.21875 6.625,-4.421875 V -6.78125 c 0,-0.171875 0,-0.25 -0.109375,-0.25 -0.03125,0 -0.078125,0 -0.15625,0.125 l -0.5,0.734375 C 5.5,-6.53125 4.984375,-7.03125 4.03125,-7.03125 c -1.875,0 -3.46875,1.59375 -3.46875,3.625 z m 0,0"
               id="id-f19f8a1e-4768-43fc-96dc-2ccedc86ed2c" />
          </g>
        </g>
      </defs>
      <g
         fill="#000000"
         fill-opacity="1"
         id="id-f38dad92-cbae-4442-b0b5-0fe96423a3c1"
         transform="translate(-149.056,-127.734)"
         style="fill:#0700f2;fill-opacity:0.972549">
        <g
           transform="translate(148.712,134.765)"
           id="g4420"
           style="fill:#0700f2;fill-opacity:0.972549">
          <path
             d="M 0.34375,-6.8125 V -6.5 h 0.25 c 0.765625,0 0.78125,0.109375 0.78125,0.46875 v 5.25 c 0,0.359375 -0.015625,0.46875 -0.78125,0.46875 h -0.25 V 0 H 4 C 5.671875,0 7.046875,-1.46875 7.046875,-3.34375 7.046875,-5.25 5.703125,-6.8125 4,-6.8125 Z m 2.375,6.5 C 2.25,-0.3125 2.234375,-0.375 2.234375,-0.703125 V -6.09375 C 2.234375,-6.4375 2.25,-6.5 2.71875,-6.5 h 1 c 0.625,0 1.3125,0.21875 1.8125,0.921875 0.4375,0.59375 0.515625,1.453125 0.515625,2.234375 0,1.09375 -0.1875,1.703125 -0.546875,2.1875 -0.203125,0.265625 -0.765625,0.84375 -1.765625,0.84375 z m 0,0"
             id="id-07177e2e-a23e-4a8b-98ec-0f3bf4bfff68"
             style="fill:#0700f2;fill-opacity:0.972549" />
        </g>
        <g
           transform="translate(156.322,134.765)"
           id="g8844"
           style="fill:#0700f2;fill-opacity:0.972549">
          <path
             d="m 0.5625,-3.40625 c 0,2.0625 1.609375,3.625 3.46875,3.625 1.625,0 2.59375,-1.390625 2.59375,-2.546875 C 6.625,-2.421875 6.625,-2.5 6.5,-2.5 6.390625,-2.5 6.390625,-2.4375 6.375,-2.328125 6.296875,-0.90625 5.234375,-0.09375 4.140625,-0.09375 c -0.609375,0 -2.5625,-0.328125 -2.5625,-3.3125 0,-2.96875 1.953125,-3.3125 2.5625,-3.3125 1.078125,0 1.96875,0.90625 2.171875,2.359375 C 6.328125,-4.21875 6.328125,-4.1875 6.46875,-4.1875 6.625,-4.1875 6.625,-4.21875 6.625,-4.421875 V -6.78125 c 0,-0.171875 0,-0.25 -0.109375,-0.25 -0.03125,0 -0.078125,0 -0.15625,0.125 l -0.5,0.734375 C 5.5,-6.53125 4.984375,-7.03125 4.03125,-7.03125 c -1.875,0 -3.46875,1.59375 -3.46875,3.625 z m 0,0"
             id="id-9aebd07f-1c19-4f65-9b0d-91d7015ce7ee"
             style="fill:#0700f2;fill-opacity:0.972549" />
        </g>
      </g>
    </g>
  </g>
</svg>
